<svg width="1024" height="1052" viewBox="0 0 1024 1052" fill="none" xmlns="http://www.w3.org/2000/svg">
<path d="M411.25 349.75C389.75 327.75 381.25 296.25 376.75 267.75C372.25 239.25 401.05 40.65 342.25 96.25C268.75 165.75 257.75 240.25 257.75 298.25C257.75 356.25 291.25 453.25 360.25 497.25C429.25 541.25 436.75 572.25 439.25 583.25C441.75 594.25 436.75 596.25 449.75 596.25C450.25 572.25 440.25 551.25 436.75 539.75C433.25 528.25 411.25 503.25 404.25 494.25C397.25 485.25 395.75 480.75 379.75 448.75C417.25 484.75 443.25 512.75 456.75 551.25C467.55 582.05 470.583 642.417 470.75 668.75V858.25C470.75 862.65 474.417 900.083 476.25 918.25C477.417 894.583 480.25 849.45 482.25 858.25C484.25 867.05 487.75 930.25 489.25 960.75C489.917 859.083 490.85 647.05 489.25 612.25C487.25 568.75 481.75 563.75 470.75 527.75C459.75 491.75 439.25 472.25 416.25 448.75C479.75 497.75 491.25 549.75 496.75 577.75C501.15 600.15 502.583 676.75 502.75 712.25L505.75 718.25C506.083 749.417 506.75 818.85 506.75 847.25C506.75 875.65 510.417 995.083 512.25 1051.25V674.75C511.25 675.25 509.15 675.35 508.75 671.75C508.25 667.25 506.75 642.75 506.75 612.25C506.75 581.75 497.75 531.75 496.75 521.75C495.95 513.75 489.083 494.75 485.75 486.25C485.25 491.917 484.25 502.05 484.25 497.25C484.25 492.45 480.917 484.25 479.25 480.75V426.25C479.25 416.75 467.25 397.75 459.75 390.25C452.25 382.75 432.75 371.75 411.25 349.75Z" fill="white"/>
<path d="M612.75 349.75C634.25 327.75 642.75 296.25 647.25 267.75C651.75 239.25 622.95 40.65 681.75 96.25C755.25 165.75 766.25 240.25 766.25 298.25C766.25 356.25 732.75 453.25 663.75 497.25C594.75 541.25 587.25 572.25 584.75 583.25C582.25 594.25 587.25 596.25 574.25 596.25C573.75 572.25 583.75 551.25 587.25 539.75C590.75 528.25 612.75 503.25 619.75 494.25C626.75 485.25 628.25 480.75 644.25 448.75C606.75 484.75 580.75 512.75 567.25 551.25C556.45 582.05 553.417 642.417 553.25 668.75V858.25C553.25 862.65 549.583 900.083 547.75 918.25C546.583 894.583 543.75 849.45 541.75 858.25C539.75 867.05 536.25 930.25 534.75 960.75C534.083 859.083 533.15 647.05 534.75 612.25C536.75 568.75 542.25 563.75 553.25 527.75C564.25 491.75 584.75 472.25 607.75 448.75C544.25 497.75 532.75 549.75 527.25 577.75C522.85 600.15 521.417 676.75 521.25 712.25L518.25 718.25C517.917 749.417 517.25 818.85 517.25 847.25C517.25 875.65 513.583 995.083 511.75 1051.25V674.75C512.75 675.25 514.85 675.35 515.25 671.75C515.75 667.25 517.25 642.75 517.25 612.25C517.25 581.75 526.25 531.75 527.25 521.75C528.05 513.75 534.917 494.75 538.25 486.25C538.75 491.917 539.75 502.05 539.75 497.25C539.75 492.45 543.083 484.25 544.75 480.75V426.25C544.75 416.75 556.75 397.75 564.25 390.25C571.75 382.75 591.25 371.75 612.75 349.75Z" fill="white"/>
<path d="M500.762 549.56C500.03 544.47 499.326 539.769 498.714 535.681C497.739 529.179 496.998 524.232 496.75 521.75C495.95 513.75 489.083 494.75 485.75 486.25C485.25 491.917 484.25 502.05 484.25 497.25C484.25 492.45 480.917 484.25 479.25 480.75V426.25C479.25 421.375 476.09 413.997 471.999 406.956C416.327 386.91 375.75 324.784 375.75 251.25C375.75 242.22 376.362 233.361 377.539 224.732C377.588 223.802 377.637 222.864 377.687 221.918C380.936 160.385 385.924 65.8872 349.329 90.4742C346.434 92.7985 343.591 95.1839 340.801 97.6286C268.605 166.734 257.75 240.633 257.75 298.25C257.75 356.25 291.25 453.25 360.25 497.25C374.379 506.26 385.929 514.724 395.386 522.584C408.482 529.142 422.214 534.618 436.465 538.895C433.081 529.505 419.101 512.455 410.051 501.419L410.051 501.418C407.689 498.538 405.664 496.068 404.25 494.25C398.79 487.23 396.676 482.948 388.418 466.219L388.415 466.213C386.086 461.495 383.269 455.788 379.75 448.75C414.668 482.271 439.615 508.856 453.784 543.44C461.458 545.169 469.261 546.557 477.178 547.586C475.282 541.966 473.147 535.594 470.75 527.75C460.329 493.645 441.381 474.348 419.859 452.43C418.664 451.212 417.46 449.987 416.25 448.75C461.819 483.914 480.609 520.622 489.62 548.897C493.312 549.196 497.027 549.418 500.762 549.56Z" fill="white"/>
<path d="M546.942 547.232C548.807 541.699 550.903 535.43 553.25 527.75C563.671 493.645 582.619 474.348 604.141 452.43L604.163 452.408C605.351 451.197 606.547 449.979 607.75 448.75C562.3 483.822 543.489 520.431 534.451 548.676C530.741 549.014 527.007 549.273 523.253 549.452C523.98 544.404 524.678 539.74 525.286 535.682L525.286 535.681C526.261 529.179 527.002 524.232 527.25 521.75C528.05 513.75 534.917 494.75 538.25 486.25C538.75 491.917 539.75 502.05 539.75 497.25C539.75 492.45 543.083 484.25 544.75 480.75V426.25C544.75 421.094 548.284 413.141 552.716 405.745C590.282 390.97 620.596 356.896 635.574 313.255C641.431 298.463 644.89 282.694 647.25 267.75C648.361 260.713 647.442 243.307 646.313 221.918C643.282 164.505 638.736 78.3947 667.866 87.0912C694.378 107.475 716.818 132.895 733.752 161.92C761.03 210.508 766.25 258.294 766.25 298.25C766.25 356.25 732.75 453.25 663.75 497.25C651.756 504.898 641.62 512.154 633.046 518.98C618.744 526.693 603.632 533.096 587.869 538.027C591.756 528.484 605.173 512.122 613.949 501.418C616.311 498.538 618.336 496.068 619.75 494.25C625.21 487.23 627.324 482.948 635.581 466.22L635.585 466.213L635.598 466.187C637.924 461.474 640.738 455.775 644.25 448.75C609.548 482.064 584.693 508.528 570.48 542.801C562.762 544.63 554.91 546.113 546.942 547.232Z" fill="white"/>
<path d="M419.75 137.25C388.55 166.85 378.25 214.917 376.75 234.25C354.75 199.75 314.85 124.05 333.25 105.25C356.25 81.75 375.25 69.25 417.75 51.75C451.75 37.75 488.25 34.25 505.25 34.25C504.917 45.5833 502.25 92.25 502.25 92.25C482.25 91.75 458.75 100.25 419.75 137.25Z" fill="white"/>
<path d="M603.25 137.25C634.45 166.85 644.75 214.917 646.25 234.25C668.25 199.75 708.15 124.05 689.75 105.25C666.75 81.75 647.75 69.25 605.25 51.75C571.25 37.75 534.25 34.25 517.25 34.25C517.583 45.5833 520.25 92.25 520.25 92.25C540.25 91.75 564.25 100.25 603.25 137.25Z" fill="white"/>
<path fill-rule="evenodd" clip-rule="evenodd" d="M510.75 288.75C530.08 288.75 545.75 273.08 545.75 253.75C545.75 234.42 530.08 218.75 510.75 218.75C491.42 218.75 475.75 234.42 475.75 253.75C475.75 273.08 491.42 288.75 510.75 288.75ZM511.75 281.75C521.139 281.75 528.75 274.139 528.75 264.75C528.75 255.361 521.139 247.75 511.75 247.75C502.361 247.75 494.75 255.361 494.75 264.75C494.75 274.139 502.361 281.75 511.75 281.75Z" fill="white"/>
<path fill-rule="evenodd" clip-rule="evenodd" d="M510.75 302.25C504.88 317.12 488.802 316.135 479.836 313.901C454.973 302.261 437.75 277.017 437.75 247.75C437.75 220.764 452.393 197.198 474.167 184.564C440.959 199.066 417.75 232.197 417.75 270.75C417.75 295.126 427.028 317.335 442.246 334.037C446.31 340.341 451.134 346.682 456.25 351.25L457.018 351.936C470.85 364.281 486.96 378.66 498.25 400.75C507.45 418.75 507.75 444.25 506.75 454.75C506.75 449.917 506.15 439.15 503.75 434.75C501.35 430.35 498.75 427.583 497.75 426.75C497.917 441.417 498.55 471.65 499.75 475.25C500.321 476.962 501.18 478.673 502.137 480.577C503.695 483.679 505.511 487.293 506.75 492.25C508.529 499.365 512.681 563.042 513.226 593.572C513.227 593.946 513.229 594.315 513.23 594.678C513.232 595.194 513.234 595.699 513.236 596.193C513.205 598.892 513.208 601.27 513.25 603.25C513.298 601.003 513.295 598.244 513.25 595.084C513.679 565.2 517.941 499.485 519.75 492.25C520.989 487.293 522.805 483.679 524.363 480.577C525.32 478.673 526.179 476.962 526.75 475.25C527.95 471.65 528.583 441.417 528.75 426.75C527.75 427.583 525.15 430.35 522.75 434.75C520.35 439.15 519.75 449.917 519.75 454.75C518.75 444.25 519.05 418.75 528.25 400.75C539.54 378.66 555.65 364.281 569.482 351.936L570.25 351.25C581.03 341.625 590.513 324.126 594.33 315.694C601.612 302.342 605.75 287.029 605.75 270.75C605.75 229.322 578.95 194.153 541.741 181.636C566.563 193.291 583.75 218.513 583.75 247.75C583.75 277.017 566.527 302.261 541.664 313.901C532.698 316.135 516.62 317.12 510.75 302.25ZM513.25 603.25C513.25 601.078 513.248 598.461 513.245 595.443C513.243 595.594 513.241 595.745 513.239 595.895L513.236 596.193C513.245 598.899 513.25 601.262 513.25 603.25Z" fill="white"/>
<path d="M503.055 154.852L511.25 0.75L519.419 154.361C526.092 157.309 530.75 163.985 530.75 171.75C530.75 182.243 522.243 190.75 511.75 190.75C501.257 190.75 492.75 182.243 492.75 171.75C492.75 164.39 496.935 158.007 503.055 154.852Z" fill="white"/>
</svg>
